<svg width="168" height="60" viewBox="0 0 168 60" fill="none" xmlns="http://www.w3.org/2000/svg">
<path d="M16.2378 26.3059V37.023C16.2378 37.9078 16.4259 38.5382 16.8019 38.9143C17.1779 39.2682 17.8305 39.4451 18.7595 39.4451H20.9826V42H18.2618C16.5807 42 15.3199 41.6129 14.4793 40.8387C13.6387 40.0645 13.2185 38.7926 13.2185 37.023V26.3059H10.8627V23.8174H13.2185V19.2385H16.2378V23.8174H20.9826V26.3059H16.2378ZM27.6603 26.7704C28.1912 25.7307 28.9433 24.9234 29.9166 24.3482C30.912 23.7731 32.1175 23.4856 33.5332 23.4856V26.6045H32.7369C29.3525 26.6045 27.6603 28.4404 27.6603 32.1124V42H24.6409V23.8174H27.6603V26.7704ZM35.8905 32.8423C35.8905 30.9842 36.2665 29.3584 37.0186 27.9649C37.7707 26.5492 38.7993 25.4542 40.1044 24.68C41.4316 23.9058 42.9025 23.5187 44.5173 23.5187C46.1099 23.5187 47.4924 23.8616 48.6648 24.5473C49.8372 25.233 50.7109 26.0957 51.286 27.1354V23.8174H54.3386V42H51.286V38.6156C50.6888 39.6774 49.7929 40.5622 48.5984 41.27C47.4261 41.9558 46.0546 42.2986 44.4841 42.2986C42.8694 42.2986 41.4094 41.9005 40.1044 41.1041C38.7993 40.3078 37.7707 39.1908 37.0186 37.753C36.2665 36.3152 35.8905 34.6783 35.8905 32.8423ZM51.286 32.8755C51.286 31.5041 51.0095 30.3096 50.4565 29.2921C49.9035 28.2745 49.1514 27.5003 48.2003 26.9695C47.2712 26.4165 46.2427 26.14 45.1145 26.14C43.9864 26.14 42.9578 26.4054 42.0288 26.9363C41.0998 27.4672 40.3587 28.2414 39.8057 29.2589C39.2527 30.2764 38.9762 31.4709 38.9762 32.8423C38.9762 34.2359 39.2527 35.4525 39.8057 36.4921C40.3587 37.5096 41.0998 38.2949 42.0288 38.8479C42.9578 39.3788 43.9864 39.6442 45.1145 39.6442C46.2427 39.6442 47.2712 39.3788 48.2003 38.8479C49.1514 38.2949 49.9035 37.5096 50.4565 36.4921C51.0095 35.4525 51.286 34.2469 51.286 32.8755ZM66.2098 39.2129L71.8504 23.8174H75.0688L67.9351 42H64.4181L57.2844 23.8174H60.536L66.2098 39.2129ZM94.63 32.2119C94.63 32.787 94.5968 33.3953 94.5305 34.0368H79.9976C80.1082 35.8285 80.7165 37.2331 81.8225 38.2507C82.9506 39.2461 84.311 39.7438 85.9037 39.7438C87.2087 39.7438 88.2926 39.4451 89.1553 38.8479C90.0401 38.2285 90.6595 37.4101 91.0134 36.3926H94.265C93.7784 38.1401 92.8051 39.5668 91.3452 40.6728C89.8853 41.7567 88.0714 42.2986 85.9037 42.2986C84.1783 42.2986 82.6299 41.9115 81.2585 41.1373C79.9091 40.3631 78.8474 39.2682 78.0732 37.8525C77.299 36.4147 76.9119 34.7557 76.9119 32.8755C76.9119 30.9953 77.2879 29.3474 78.04 27.9317C78.7921 26.516 79.8428 25.4321 81.1921 24.68C82.5635 23.9058 84.1341 23.5187 85.9037 23.5187C87.629 23.5187 89.1553 23.8948 90.4825 24.6469C91.8097 25.3989 92.8272 26.4386 93.5351 27.7658C94.265 29.0709 94.63 30.5529 94.63 32.2119ZM91.5111 31.5815C91.5111 30.4312 91.2567 29.4469 90.7479 28.6285C90.2392 27.7879 89.5424 27.1575 88.6576 26.7372C87.7949 26.2948 86.8327 26.0736 85.7709 26.0736C84.2447 26.0736 82.9396 26.5602 81.8557 27.5335C80.7939 28.5068 80.1856 29.8561 80.0308 31.5815H91.5111ZM101.635 17.4468V42H98.6155V17.4468H101.635ZM105.653 32.8423C105.653 30.9842 106.029 29.3584 106.781 27.9649C107.533 26.5492 108.562 25.4542 109.867 24.68C111.194 23.9058 112.665 23.5187 114.28 23.5187C115.872 23.5187 117.255 23.8616 118.427 24.5473C119.599 25.233 120.473 26.0957 121.048 27.1354V23.8174H124.101V42H121.048V38.6156C120.451 39.6774 119.555 40.5622 118.361 41.27C117.188 41.9558 115.817 42.2986 114.246 42.2986C112.632 42.2986 111.172 41.9005 109.867 41.1041C108.562 40.3078 107.533 39.1908 106.781 37.753C106.029 36.3152 105.653 34.6783 105.653 32.8423ZM121.048 32.8755C121.048 31.5041 120.772 30.3096 120.219 29.2921C119.666 28.2745 118.914 27.5003 117.963 26.9695C117.033 26.4165 116.005 26.14 114.877 26.14C113.749 26.14 112.72 26.4054 111.791 26.9363C110.862 27.4672 110.121 28.2414 109.568 29.2589C109.015 30.2764 108.738 31.4709 108.738 32.8423C108.738 34.2359 109.015 35.4525 109.568 36.4921C110.121 37.5096 110.862 38.2949 111.791 38.8479C112.72 39.3788 113.749 39.6442 114.877 39.6442C116.005 39.6442 117.033 39.3788 117.963 38.8479C118.914 38.2949 119.666 37.5096 120.219 36.4921C120.772 35.4525 121.048 34.2469 121.048 32.8755ZM130.829 20.8643C130.254 20.8643 129.767 20.6653 129.369 20.2671C128.993 19.8689 128.805 19.3823 128.805 18.8072C128.805 18.2321 128.993 17.7454 129.369 17.3473C129.767 16.9491 130.254 16.75 130.829 16.75C131.404 16.75 131.88 16.9491 132.256 17.3473C132.654 17.7454 132.853 18.2321 132.853 18.8072C132.853 19.3823 132.654 19.8689 132.256 20.2671C131.88 20.6653 131.404 20.8643 130.829 20.8643ZM132.322 45.9484C132.322 47.5632 131.913 48.7466 131.095 49.4987C130.276 50.2508 129.082 50.6268 127.511 50.6268H125.753V48.0719H127.013C127.854 48.0719 128.44 47.906 128.772 47.5742C129.126 47.2424 129.303 46.6784 129.303 45.8821V23.8174H132.322V45.9484ZM136.305 32.8423C136.305 30.9842 136.681 29.3584 137.433 27.9649C138.186 26.5492 139.214 25.4542 140.519 24.68C141.846 23.9058 143.317 23.5187 144.932 23.5187C146.525 23.5187 147.907 23.8616 149.08 24.5473C150.252 25.233 151.126 26.0957 151.701 27.1354V23.8174H154.753V42H151.701V38.6156C151.104 39.6774 150.208 40.5622 149.013 41.27C147.841 41.9558 146.47 42.2986 144.899 42.2986C143.284 42.2986 141.824 41.9005 140.519 41.1041C139.214 40.3078 138.186 39.1908 137.433 37.753C136.681 36.3152 136.305 34.6783 136.305 32.8423ZM151.701 32.8755C151.701 31.5041 151.424 30.3096 150.871 29.2921C150.318 28.2745 149.566 27.5003 148.615 26.9695C147.686 26.4165 146.658 26.14 145.529 26.14C144.401 26.14 143.373 26.4054 142.444 26.9363C141.515 27.4672 140.774 28.2414 140.221 29.2589C139.668 30.2764 139.391 31.4709 139.391 32.8423C139.391 34.2359 139.668 35.4525 140.221 36.4921C140.774 37.5096 141.515 38.2949 142.444 38.8479C143.373 39.3788 144.401 39.6442 145.529 39.6442C146.658 39.6442 147.686 39.3788 148.615 38.8479C149.566 38.2949 150.318 37.5096 150.871 36.4921C151.424 35.4525 151.701 34.2469 151.701 32.8755Z" fill="white"/>
</svg>
